<svg width="35" height="35" viewBox="0 0 35 35" fill="none" xmlns="http://www.w3.org/2000/svg">
<path d="M34.7887 17.9019C34.7887 16.7123 34.6909 15.5163 34.4821 14.3459H17.7432V21.0849H27.3288C26.931 23.2583 25.653 25.181 23.7815 26.4026V30.7752H29.5003C32.8585 27.7273 34.7887 23.2262 34.7887 17.9019Z" fill="#4285F4"/>
<path d="M17.7432 35C22.5295 35 26.566 33.4503 29.5067 30.7752L23.788 26.4026C22.1969 27.4701 20.1429 28.0746 17.7497 28.0746C13.1199 28.0746 9.1944 24.9944 7.7859 20.8534H1.88452V25.3609C4.89716 31.2706 11.0333 35 17.7432 35Z" fill="#34A853"/>
<path d="M7.77933 20.8534C7.03595 18.68 7.03595 16.3265 7.77933 14.1531V9.64542H1.88449C-0.632558 14.5903 -0.632558 20.4161 1.88449 25.3609L7.77933 20.8534Z" fill="#FBBC04"/>
<path d="M17.7432 6.92524C20.2733 6.88667 22.7186 7.82547 24.551 9.54881L29.6176 4.55246C26.4095 1.58169 22.1513 -0.0516056 17.7432 -0.000163473C11.0333 -0.000163473 4.89716 3.7294 1.88452 9.64525L7.77936 14.1529C9.18134 10.0053 13.1134 6.92524 17.7432 6.92524Z" fill="#EA4335"/>
</svg>
