<svg width="40" height="40" viewBox="0 0 40 40" fill="none" xmlns="http://www.w3.org/2000/svg">
<path d="M20 0C9.39605 0 0.800049 8.596 0.800049 19.2C0.800049 29.804 9.39605 38.4 20 38.4C30.604 38.4 39.2001 29.804 39.2001 19.2C39.2001 8.596 30.604 0 20 0ZM15.3 27.158H11.412V14.646H15.3V27.158ZM13.332 13.11C12.104 13.11 11.31 12.24 11.31 11.164C11.31 10.066 12.128 9.222 13.382 9.222C14.636 9.222 15.404 10.066 15.428 11.164C15.428 12.24 14.636 13.11 13.332 13.11ZM29.5 27.158H25.612V20.224C25.612 18.61 25.048 17.514 23.642 17.514C22.5681 17.514 21.93 18.256 21.6481 18.97C21.5441 19.224 21.518 19.584 21.518 19.942V27.156H17.628V18.636C17.628 17.074 17.578 15.768 17.526 14.644H20.904L21.0821 16.382H21.16C21.672 15.566 22.9261 14.362 25.024 14.362C27.5821 14.362 29.5 16.076 29.5 19.76V27.158Z" fill="#0033B5" fill-opacity="0.8"/>
</svg>
